<svg width="23" height="23" viewBox="0 0 23 23" fill="none" xmlns="http://www.w3.org/2000/svg">
<g clip-path="url(#clip0_200_1078)">
<path d="M22.1375 0.862234C21.5781 0.329422 20.8352 0.0322266 20.0627 0.0322266C19.2902 0.0322266 18.5473 0.329422 17.9879 0.862234L7.24786 11.5956C6.91373 11.5312 6.5742 11.4991 6.23394 11.4997C5.54222 11.4977 4.85697 11.633 4.21789 11.8977C3.57881 12.1624 2.99858 12.5512 2.51081 13.0417C1.21515 14.3383 0.300897 17.817 0.0296892 19.7059C-0.0304752 20.1145 -0.0018898 20.5313 0.113499 20.9279C0.228889 21.3245 0.428372 21.6916 0.698371 22.0041C0.968369 22.3167 1.30254 22.5674 1.67814 22.7392C2.05374 22.911 2.46195 22.9998 2.87498 22.9997C3.01574 22.9998 3.15633 22.9899 3.29569 22.97C5.18456 22.6988 8.66236 21.7845 9.95994 20.4889C10.5692 19.8778 11.019 19.1264 11.2697 18.3007C11.5203 17.475 11.5642 16.6004 11.3974 15.7538L22.1375 5.01181C22.6863 4.46077 22.9944 3.71474 22.9944 2.93702C22.9944 2.15931 22.6863 1.41327 22.1375 0.862234ZM8.60294 19.1338C7.90815 19.8286 5.24877 20.7524 3.02161 21.0725C2.87276 21.094 2.72096 21.0807 2.57812 21.0337C2.43529 20.9866 2.30531 20.9071 2.1984 20.8013C2.09186 20.6949 2.01188 20.565 1.96493 20.422C1.91798 20.279 1.90538 20.1269 1.92815 19.9781C2.24727 17.7519 3.17398 15.0906 3.8659 14.3968C4.50438 13.8217 5.33921 13.5136 6.19819 13.5361C7.05717 13.5585 7.87478 13.9097 8.48237 14.5173C9.08997 15.1249 9.44121 15.9425 9.46364 16.8015C9.48608 17.6605 9.17799 18.4953 8.60294 19.1338ZM20.7843 3.65673L10.6059 13.8361C10.2277 13.2635 9.73895 12.7722 9.16836 12.391L19.343 2.2154C19.5366 2.03051 19.794 1.92735 20.0617 1.92735C20.3294 1.92735 20.5869 2.03051 20.7805 2.2154C20.8755 2.30969 20.9511 2.42181 21.0027 2.54534C21.0544 2.66887 21.0811 2.80138 21.0815 2.93527C21.0819 3.06916 21.0558 3.20181 21.0048 3.32561C20.9538 3.44941 20.8789 3.56193 20.7843 3.65673Z" fill="#4F46E5"/>
</g>
<defs>
<clipPath id="clip0_200_1078">
<rect width="23" height="23" fill="white"/>
</clipPath>
</defs>
</svg>
