<svg width="26" height="26" viewBox="0 0 26 26" fill="none" xmlns="http://www.w3.org/2000/svg">
<g clip-path="url(#clip0_200_1079)">
<rect width="22.2857" height="22.2857" transform="translate(2.78577)" fill="white"/>
<path d="M20.4286 0H7.42862C6.19771 0.00147444 5.01764 0.491105 4.14726 1.36149C3.27687 2.23188 2.78724 3.41195 2.78577 4.64286L2.78577 17.6429C2.78724 18.8738 3.27687 20.0538 4.14726 20.9242C5.01764 21.7946 6.19771 22.2842 7.42862 22.2857H20.4286C21.6595 22.2842 22.8396 21.7946 23.71 20.9242C24.5804 20.0538 25.07 18.8738 25.0715 17.6429V4.64286C25.07 3.41195 24.5804 2.23188 23.71 1.36149C22.8396 0.491105 21.6595 0.00147444 20.4286 0V0ZM23.2143 17.6429C23.2143 18.3817 22.9208 19.0902 22.3984 19.6127C21.876 20.1351 21.1674 20.4286 20.4286 20.4286H7.42862C6.68981 20.4286 5.98125 20.1351 5.45883 19.6127C4.9364 19.0902 4.64291 18.3817 4.64291 17.6429V4.64286C4.64291 3.90404 4.9364 3.19548 5.45883 2.67306C5.98125 2.15064 6.68981 1.85714 7.42862 1.85714H20.4286C21.1674 1.85714 21.876 2.15064 22.3984 2.67306C22.9208 3.19548 23.2143 3.90404 23.2143 4.64286V17.6429Z" fill="#374957"/>
</g>
<g clip-path="url(#clip1_200_1079)">
<rect y="5.57153" width="20.4286" height="20.4286" rx="4.2" fill="#F9FAFB"/>
<path d="M16.1726 5.57153H4.25595C3.12762 5.57288 2.04589 6.02171 1.24803 6.81957C0.450179 7.61742 0.00135157 8.69915 0 9.82749L0 21.7442C0.00135157 22.8725 0.450179 23.9542 1.24803 24.7521C2.04589 25.5499 3.12762 25.9988 4.25595 26.0001H16.1726C17.301 25.9988 18.3827 25.5499 19.1805 24.7521C19.9784 23.9542 20.4272 22.8725 20.4286 21.7442V9.82749C20.4272 8.69915 19.9784 7.61742 19.1805 6.81957C18.3827 6.02171 17.301 5.57288 16.1726 5.57153V5.57153ZM18.7262 21.7442C18.7262 22.4214 18.4572 23.0709 17.9783 23.5498C17.4994 24.0287 16.8499 24.2977 16.1726 24.2977H4.25595C3.5787 24.2977 2.92919 24.0287 2.4503 23.5498C1.97142 23.0709 1.70238 22.4214 1.70238 21.7442V9.82749C1.70238 9.15024 1.97142 8.50073 2.4503 8.02184C2.92919 7.54295 3.5787 7.27391 4.25595 7.27391H16.1726C16.8499 7.27391 17.4994 7.54295 17.9783 8.02184C18.4572 8.50073 18.7262 9.15024 18.7262 9.82749V21.7442Z" fill="#374957"/>
</g>
<defs>
<clipPath id="clip0_200_1079">
<rect width="22.2857" height="22.2857" fill="white" transform="translate(2.78577)"/>
</clipPath>
<clipPath id="clip1_200_1079">
<rect y="5.57153" width="20.4286" height="20.4286" rx="4.2" fill="white"/>
</clipPath>
</defs>
</svg>
