<svg width="18" height="21" viewBox="0 0 18 21" fill="none" xmlns="http://www.w3.org/2000/svg">
<path d="M0.939575 5.17369H2.71502M2.71502 5.17369H16.9186M2.71502 5.17369V17.6018C2.71502 18.0727 2.90207 18.5243 3.23503 18.8572C3.56799 19.1902 4.01958 19.3772 4.49046 19.3772H13.3677C13.8386 19.3772 14.2901 19.1902 14.6231 18.8572C14.9561 18.5243 15.1431 18.0727 15.1431 17.6018V5.17369M5.37818 5.17369V3.39825C5.37818 2.92737 5.56524 2.47578 5.8982 2.14282C6.23116 1.80986 6.68275 1.6228 7.15363 1.6228H10.7045C11.1754 1.6228 11.627 1.80986 11.9599 2.14282C12.2929 2.47578 12.48 2.92737 12.48 3.39825V5.17369M7.15363 9.6123V14.9386M10.7045 9.6123V14.9386" stroke="#374151" stroke-width="1.42373" stroke-linecap="round" stroke-linejoin="round"/>
</svg>
