<svg width="20" height="20" viewBox="0 0 20 20" fill="none" xmlns="http://www.w3.org/2000/svg">
<g clip-path="url(#clip0_200_1083)">
<path d="M9.1723 2.14839L9.16647 15.0134C9.16647 15.2344 9.25426 15.4464 9.41055 15.6026C9.56683 15.7589 9.77879 15.8467 9.9998 15.8467C10.2208 15.8467 10.4328 15.7589 10.5891 15.6026C10.7453 15.4464 10.8331 15.2344 10.8331 15.0134L10.839 2.16256L13.2656 4.59006C13.4219 4.74628 13.6338 4.83404 13.8548 4.83404C14.0758 4.83404 14.2877 4.74628 14.444 4.59006C14.6002 4.43378 14.688 4.22186 14.688 4.00089C14.688 3.77992 14.6002 3.568 14.444 3.41172L11.7681 0.732555C11.536 0.500239 11.2603 0.315947 10.9569 0.19021C10.6535 0.0644734 10.3282 -0.000244141 9.9998 -0.000244141C9.67136 -0.000244141 9.34614 0.0644734 9.04272 0.19021C8.7393 0.315947 8.46363 0.500239 8.23147 0.732555L5.55563 3.40922C5.39941 3.5655 5.31165 3.77742 5.31165 3.99839C5.31165 4.21936 5.39941 4.43128 5.55563 4.58756C5.71191 4.74378 5.92383 4.83154 6.1448 4.83154C6.36577 4.83154 6.57769 4.74378 6.73397 4.58756L9.1723 2.14839Z" fill="#374957"/>
<path d="M18.3333 14.1661V17.4994C18.3333 17.7204 18.2455 17.9324 18.0893 18.0887C17.933 18.245 17.721 18.3328 17.5 18.3328H2.5C2.27899 18.3328 2.06702 18.245 1.91074 18.0887C1.75446 17.9324 1.66667 17.7204 1.66667 17.4994V14.1661C1.66667 13.9451 1.57887 13.7331 1.42259 13.5768C1.26631 13.4206 1.05435 13.3328 0.833333 13.3328C0.61232 13.3328 0.400358 13.4206 0.244078 13.5768C0.0877974 13.7331 0 13.9451 0 14.1661L0 17.4994C0 18.1625 0.263392 18.7983 0.732233 19.2672C1.20107 19.736 1.83696 19.9994 2.5 19.9994H17.5C18.163 19.9994 18.7989 19.736 19.2678 19.2672C19.7366 18.7983 20 18.1625 20 17.4994V14.1661C20 13.9451 19.9122 13.7331 19.7559 13.5768C19.5996 13.4206 19.3877 13.3328 19.1667 13.3328C18.9457 13.3328 18.7337 13.4206 18.5774 13.5768C18.4211 13.7331 18.3333 13.9451 18.3333 14.1661Z" fill="#374957"/>
</g>
<defs>
<clipPath id="clip0_200_1083">
<rect width="20" height="20" fill="white"/>
</clipPath>
</defs>
</svg>
