<svg width="24" height="24" viewBox="0 0 24 24" fill="none" xmlns="http://www.w3.org/2000/svg">
<g clip-path="url(#clip0_196_704)">
<path d="M23.2709 9.41885C21.7199 6.89285 18.1919 2.65485 11.9999 2.65485C5.80787 2.65485 2.27987 6.89285 0.728868 9.41885C0.249396 10.1944 -0.00457764 11.0881 -0.00457764 11.9998C-0.00457764 12.9116 0.249396 13.8053 0.728868 14.5808C2.27987 17.1068 5.80787 21.3448 11.9999 21.3448C18.1919 21.3448 21.7199 17.1068 23.2709 14.5808C23.7503 13.8053 24.0043 12.9116 24.0043 11.9998C24.0043 11.0881 23.7503 10.1944 23.2709 9.41885ZM21.5659 13.5338C20.2339 15.6998 17.2189 19.3448 11.9999 19.3448C6.78087 19.3448 3.76587 15.6998 2.43387 13.5338C2.149 13.0729 1.99812 12.5417 1.99812 11.9998C1.99812 11.458 2.149 10.9268 2.43387 10.4658C3.76587 8.29985 6.78087 4.65485 11.9999 4.65485C17.2189 4.65485 20.2339 8.29585 21.5659 10.4658C21.8507 10.9268 22.0016 11.458 22.0016 11.9998C22.0016 12.5417 21.8507 13.0729 21.5659 13.5338Z" fill="#6B7280"/>
<path d="M11.9998 6.99985C11.0109 6.99985 10.0442 7.29309 9.22194 7.8425C8.39969 8.39191 7.75883 9.1728 7.38039 10.0864C7.00195 11.0001 6.90294 12.0054 7.09586 12.9753C7.28879 13.9452 7.76499 14.8361 8.46425 15.5354C9.16352 16.2346 10.0544 16.7108 11.0243 16.9038C11.9942 17.0967 12.9996 16.9977 13.9132 16.6192C14.8268 16.2408 15.6077 15.5999 16.1571 14.7777C16.7065 13.9555 16.9998 12.9888 16.9998 11.9998C16.9982 10.6743 16.4709 9.40341 15.5336 8.46607C14.5962 7.52873 13.3254 7.00144 11.9998 6.99985ZM11.9998 14.9998C11.4064 14.9998 10.8264 14.8239 10.3331 14.4943C9.83973 14.1646 9.45521 13.6961 9.22815 13.1479C9.00109 12.5997 8.94168 11.9965 9.05743 11.4146C9.17319 10.8326 9.45891 10.2981 9.87847 9.87853C10.298 9.45897 10.8326 9.17325 11.4145 9.05749C11.9965 8.94174 12.5997 9.00115 13.1478 9.22821C13.696 9.45527 14.1646 9.83979 14.4942 10.3331C14.8238 10.8265 14.9998 11.4065 14.9998 11.9998C14.9998 12.7955 14.6837 13.5586 14.1211 14.1212C13.5585 14.6838 12.7954 14.9998 11.9998 14.9998Z" fill="#6B7280"/>
</g>
<defs>
<clipPath id="clip0_196_704">
<rect width="24" height="24" fill="white"/>
</clipPath>
</defs>
</svg>
